<svg xmlns:xlink="http://www.w3.org/1999/xlink" width="38" height="40" viewBox="0 0 38 40" fill="none" xmlns="http://www.w3.org/2000/svg"><path d="M33 2C30.242 2 28 4.242 28 7C28 7.714 28.156 8.392 28.428 9.01L24.518 13.408C23.23 12.524 21.678 12 20 12C18.52 12 17.152 12.432 15.962 13.132L11.414 8.586L11.368 8.632C11.76 7.836 12 6.95 12 6C12 2.686 9.314 0 6 0C2.686 0 0 2.686 0 6C0 9.314 2.686 12 6 12C6.95 12 7.834 11.76 8.632 11.368L8.586 11.414L13.134 15.96C12.43 17.152 12 18.522 12 20C12 21.994 12.76 23.798 13.97 25.202L8.816 30.354C8.252 30.132 7.642 30 7 30C4.244 30 2 32.242 2 35C2 37.758 4.244 40 7 40C9.756 40 12 37.758 12 35C12 34.358 11.868 33.748 11.646 33.182L17.322 27.506C18.164 27.806 19.056 28 20 28C24.412 28 28 24.412 28 20C28 18.728 27.674 17.542 27.144 16.472L31.378 11.706C31.89 11.882 32.43 12 33 12C35.758 12 38 9.758 38 7C38 4.242 35.758 2 33 2ZM20 24C17.794 24 16 22.206 16 20C16 17.794 17.794 16 20 16C22.206 16 24 17.794 24 20C24 22.206 22.206 24 20 24Z" fill="#153147"></path></svg>