<svg xmlns:xlink="http://www.w3.org/1999/xlink" width="35" height="29" viewBox="0 0 35 29" fill="none" xmlns="http://www.w3.org/2000/svg"><path d="M21.4414 0.882221C20.5342 0.624263 19.5653 1.1487 19.306 2.05753L12.4726 25.9742C12.2135 26.8813 12.74 27.8499 13.6473 28.1096C14.5544 28.3676 15.5234 27.8431 15.7827 26.9343L22.616 3.01764C22.8752 2.11051 22.3487 1.14189 21.4414 0.882221ZM8.68235 2.59055C8.25356 2.67597 7.82289 2.8929 7.56117 3.28582L0.727838 13.5358C0.38788 14.0449 0.347049 14.6958 0.621237 15.2441L5.74624 25.4941C6.16802 26.3364 7.19781 26.7156 8.04172 26.2937C8.88564 25.8717 9.26438 24.8416 8.84242 23.9977L4.1445 14.6565L10.4441 5.20602C10.9674 4.4219 10.7486 3.32855 9.9636 2.8041C9.57102 2.54272 9.11114 2.50514 8.68235 2.59055ZM28.3282 2.64352C27.9134 2.50686 27.4689 2.48633 27.0469 2.69816C26.203 3.12012 25.8243 4.15023 26.2462 4.99415L30.9442 14.3353L24.6445 23.7858C24.1212 24.5699 24.3401 25.6633 25.1251 26.1877C25.91 26.7105 27.0041 26.4918 27.5275 25.706L34.3608 15.456C34.7008 14.9469 34.7416 14.2961 34.4674 13.7477L29.3424 3.49769C29.1316 3.07744 28.743 2.78361 28.3282 2.64352Z" fill="#153147"></path></svg>