<svg xmlns:xlink="http://www.w3.org/1999/xlink" width="26" height="21" viewBox="0 0 26 21" fill="none" xmlns="http://www.w3.org/2000/svg"><path d="M15.8838 1.03578C15.22 0.847035 14.511 1.23077 14.3213 1.89577L9.32127 19.3958C9.13164 20.0595 9.51689 20.7683 10.1808 20.9583C10.8445 21.147 11.5535 20.7633 11.7433 20.0983L16.7433 2.59828C16.9329 1.93453 16.5476 1.22578 15.8838 1.03578ZM6.54789 2.28578C6.23414 2.34828 5.91902 2.50701 5.72752 2.79451L0.72752 10.2945C0.47877 10.667 0.448894 11.1433 0.649519 11.5445L4.39952 19.0445C4.70814 19.6608 5.46164 19.9383 6.07914 19.6295C6.69664 19.3208 6.97377 18.567 6.66502 17.9495L3.22752 11.1145L7.83702 4.19954C8.21989 3.62579 8.05977 2.82578 7.48539 2.44203C7.19814 2.25078 6.86164 2.22328 6.54789 2.28578ZM20.9229 2.32454C20.6194 2.22454 20.2941 2.20952 19.9854 2.36452C19.3679 2.67327 19.0908 3.42701 19.3995 4.04451L22.837 10.8795L18.2275 17.7945C17.8446 18.3683 18.0048 19.1683 18.5791 19.552C19.1535 19.9345 19.954 19.7745 20.337 19.1995L25.337 11.6995C25.5858 11.327 25.6156 10.8508 25.415 10.4495L21.665 2.94954C21.5108 2.64204 21.2264 2.42704 20.9229 2.32454Z" fill="#F0D724"></path></svg>