<svg xmlns:xlink="http://www.w3.org/1999/xlink" width="41" height="33" viewBox="0 0 41 33" fill="none" xmlns="http://www.w3.org/2000/svg"><path d="M8.65624 0.829102C4.67299 0.829102 1.55535 1.83567 1.00506 5.66421C0.828806 6.89013 1.21653 8.09648 2.10758 8.96794C2.55016 9.40073 3.01821 9.91577 3.63705 10.4367C5.19001 11.7468 7.16989 13.2195 9.02247 14.5374C14.12 18.1603 18.1444 20.4124 20.5277 20.4124C22.911 20.4124 26.9354 18.1603 32.0329 14.5374C33.8875 13.2195 35.8673 11.7449 37.4183 10.4367C38.0372 9.91577 38.5052 9.40269 38.9478 8.96794C39.8389 8.09648 40.2266 6.89013 40.0503 5.66421C39.5 1.83567 36.3824 0.829102 32.3992 0.829102H8.65624ZM0.944336 12.8846V24.3291C0.944336 28.655 4.45172 32.1624 8.77768 32.1624H32.2777C36.6037 32.1624 40.1111 28.655 40.1111 24.3291V12.8846C38.5052 14.4101 36.7114 15.9846 34.1753 17.7804C28.6215 21.7128 23.6336 24.3291 20.5277 24.3291C17.4218 24.3291 12.4339 21.7128 6.88006 17.7804C4.34206 15.9846 2.55017 14.4101 0.944336 12.8846Z" fill="black"></path></svg>