<svg xmlns:xlink="http://www.w3.org/1999/xlink" width="47" height="47" viewBox="0 0 47 47" fill="none" xmlns="http://www.w3.org/2000/svg"><path fill-rule="evenodd" clip-rule="evenodd" d="M5.53711 1.50107C6.05109 0.987852 6.66828 0.589732 7.34777 0.333087C8.02726 0.0764429 8.75354 -0.0328644 9.47847 0.012409C10.2034 0.0576823 10.9104 0.256503 11.5527 0.595694C12.195 0.934886 12.7578 1.4067 13.204 1.97988L18.4768 8.75375C19.4432 9.99632 19.784 11.6149 19.4021 13.1424L17.7953 19.5755C17.7128 19.9087 17.7176 20.2576 17.8092 20.5884C17.9007 20.9193 18.0761 21.2209 18.3182 21.4643L25.5356 28.6818C25.7793 28.9244 26.0814 29.1 26.4128 29.1916C26.7442 29.2832 27.0937 29.2877 27.4274 29.2046L33.8575 27.5978C34.6114 27.4104 35.398 27.3963 36.1581 27.5566C36.9182 27.7169 37.6321 28.0473 38.2462 28.5231L45.02 33.793C47.4552 35.6877 47.6785 39.2861 45.4989 41.4628L42.4615 44.5002C40.2877 46.6739 37.0389 47.6286 34.0103 46.5623C26.2573 43.838 19.2186 39.4 13.4184 33.5786C7.59739 27.7792 3.15935 20.7416 0.434668 12.9896C-0.628706 9.964 0.325981 6.71219 2.49973 4.53844L5.53711 1.50107Z" fill="black"></path></svg>