<svg xmlns:xlink="http://www.w3.org/1999/xlink" width="41" height="40" viewBox="0 0 41 40" fill="none" xmlns="http://www.w3.org/2000/svg"><path d="M26.3978 0.824707C25.8785 0.824707 25.3445 1.09594 24.9694 1.4549C21.9368 4.35872 21.0081 6.78705 22.1169 10.1135C19.5298 12.0965 17.8957 12.5831 14.6661 12.5831C10.251 12.5831 7.36832 13.1154 5.40685 15.0755V15.1366C3.5715 16.9712 3.5715 19.9087 5.40685 21.7417L10.8906 27.2681L1.54717 36.6074C0.782441 37.3711 0.725457 38.6538 1.49019 39.4176C2.25511 40.1833 3.54056 40.1833 4.30549 39.4176L13.6836 30.0372L19.1765 35.5029C21.012 37.3378 23.9503 37.3378 25.7859 35.5029H25.8472C27.8094 33.5426 28.3562 31.03 28.3562 26.2674C28.3562 23.2398 28.9776 21.1033 30.8589 18.8551C34.4797 19.9165 36.5863 18.9001 39.5555 15.9319C39.9227 15.5647 40.1062 15.0442 40.1062 14.525C40.1062 13.8363 39.9323 12.7805 39.4942 11.4669C38.7886 9.35169 37.5739 7.22356 35.6388 5.28951C33.7036 3.35566 31.5741 2.14149 29.4577 1.4363C28.1433 0.998414 27.087 0.824707 26.3978 0.824707Z" fill="black"></path></svg>