<svg xmlns:xlink="http://www.w3.org/1999/xlink" width="24" height="24" viewBox="0 0 24 24" fill="none" xmlns="http://www.w3.org/2000/svg"><path d="M15.7383 0.66243C14.1535 0.66243 12.6758 1.70245 12.2147 3.16495L1.98828 3.16243C1.29791 3.16243 0.738281 3.72243 0.738281 4.41243C0.738281 5.10243 1.29791 5.66243 1.98828 5.66243L12.2147 5.66121C12.7748 7.19246 14.1535 8.16243 15.7383 8.16243C17.323 8.16243 18.7159 7.18996 19.2858 5.65121L21.9883 5.66243C22.6787 5.66243 23.2383 5.10243 23.2383 4.41243C23.2383 3.72243 22.6787 3.16243 21.9883 3.16243H19.2752C18.6733 1.63868 17.323 0.66243 15.7383 0.66243ZM15.7383 3.16243C16.4287 3.16243 16.9883 3.72243 16.9883 4.41243C16.9883 5.10243 16.4287 5.66243 15.7383 5.66243C15.0479 5.66243 14.4883 5.10243 14.4883 4.41243C14.4883 3.72243 15.0479 3.16243 15.7383 3.16243ZM8.23828 8.16243C6.59078 8.16243 5.21178 9.18745 4.70828 10.6649C4.53253 10.6762 1.98828 10.6624 1.98828 10.6624C1.29791 10.6624 0.738281 11.2224 0.738281 11.9124C0.738281 12.6024 1.29791 13.1624 1.98828 13.1624C1.98828 13.1624 4.55378 13.1362 4.71366 13.1524C5.21716 14.6299 6.59078 15.6624 8.23828 15.6624C9.82303 15.6624 11.181 14.6912 11.775 13.1662L21.9883 13.1624C22.6787 13.1624 23.2383 12.6024 23.2383 11.9124C23.2383 11.2224 22.6787 10.6624 21.9883 10.6624L11.7685 10.6512C11.2207 9.15996 9.82303 8.16243 8.23828 8.16243ZM8.23828 10.6624C8.92866 10.6624 9.48828 11.2224 9.48828 11.9124C9.48828 12.6024 8.92866 13.1624 8.23828 13.1624C7.54791 13.1624 6.98828 12.6024 6.98828 11.9124C6.98828 11.2224 7.54791 10.6624 8.23828 10.6624ZM15.7383 15.6624C14.1535 15.6624 12.7039 16.7062 12.2138 18.1499L1.98828 18.1624C1.29791 18.1624 0.738281 18.7224 0.738281 19.4124C0.738281 20.1024 1.29791 20.6624 1.98828 20.6624L12.1953 20.6637C12.7139 22.1449 14.1535 23.1624 15.7383 23.1624C17.323 23.1624 18.6894 22.1712 19.2914 20.6637L21.9883 20.6624C22.6787 20.6624 23.2383 20.1024 23.2383 19.4124C23.2383 18.7224 22.6787 18.1624 21.9883 18.1624L19.28 18.155C18.7404 16.6762 17.323 15.6624 15.7383 15.6624ZM15.7383 18.1624C16.4287 18.1624 16.9883 18.7224 16.9883 19.4124C16.9883 20.1024 16.4287 20.6624 15.7383 20.6624C15.0479 20.6624 14.4883 20.1024 14.4883 19.4124C14.4883 18.7224 15.0479 18.1624 15.7383 18.1624Z" fill="#FE6454"></path></svg>