<svg xmlns:xlink="http://www.w3.org/1999/xlink" width="31" height="31" viewBox="0 0 31 31" fill="none" xmlns="http://www.w3.org/2000/svg"><path d="M20.6091 0.00537109C18.4433 0.00537109 16.4237 1.42673 15.7935 3.42548L1.81746 3.42204C0.873952 3.42204 0.109131 4.18737 0.109131 5.13037C0.109131 6.07337 0.873952 6.8387 1.81746 6.8387L15.7935 6.83704C16.559 8.92974 18.4433 10.2554 20.6091 10.2554C22.775 10.2554 24.6786 8.92634 25.4574 6.82338L29.1508 6.8387C30.0943 6.8387 30.8591 6.07337 30.8591 5.13037C30.8591 4.18737 30.0943 3.42204 29.1508 3.42204H25.4429C24.6203 1.33958 22.775 0.00537109 20.6091 0.00537109ZM20.6091 3.42204C21.5526 3.42204 22.3175 4.18737 22.3175 5.13037C22.3175 6.07337 21.5526 6.8387 20.6091 6.8387C19.6656 6.8387 18.9008 6.07337 18.9008 5.13037C18.9008 4.18737 19.6656 3.42204 20.6091 3.42204ZM10.3591 10.2554C8.10755 10.2554 6.22292 11.6562 5.5348 13.6755C5.29461 13.6909 1.81746 13.672 1.81746 13.672C0.873952 13.672 0.109131 14.4374 0.109131 15.3804C0.109131 16.3234 0.873952 17.0887 1.81746 17.0887C1.81746 17.0887 5.32365 17.0528 5.54214 17.075C6.23026 19.0943 8.10755 20.5054 10.3591 20.5054C12.525 20.5054 14.3809 19.178 15.1927 17.0938L29.1508 17.0887C30.0943 17.0887 30.8591 16.3234 30.8591 15.3804C30.8591 14.4374 30.0943 13.672 29.1508 13.672L15.1838 13.6567C14.435 11.6187 12.525 10.2554 10.3591 10.2554ZM10.3591 13.672C11.3026 13.672 12.0675 14.4374 12.0675 15.3804C12.0675 16.3234 11.3026 17.0887 10.3591 17.0887C9.41562 17.0887 8.6508 16.3234 8.6508 15.3804C8.6508 14.4374 9.41562 13.672 10.3591 13.672ZM20.6091 20.5054C18.4433 20.5054 16.4622 21.9318 15.7923 23.9049L1.81746 23.922C0.873952 23.922 0.109131 24.6874 0.109131 25.6304C0.109131 26.5734 0.873952 27.3387 1.81746 27.3387L15.767 27.3404C16.4758 29.3647 18.4433 30.7554 20.6091 30.7554C22.775 30.7554 24.6423 29.4006 25.4651 27.3404L29.1508 27.3387C30.0943 27.3387 30.8591 26.5734 30.8591 25.6304C30.8591 24.6874 30.0943 23.922 29.1508 23.922L25.4495 23.9118C24.712 21.8909 22.775 20.5054 20.6091 20.5054ZM20.6091 23.922C21.5526 23.922 22.3175 24.6874 22.3175 25.6304C22.3175 26.5734 21.5526 27.3387 20.6091 27.3387C19.6656 27.3387 18.9008 26.5734 18.9008 25.6304C18.9008 24.6874 19.6656 23.922 20.6091 23.922Z" fill="#153147"></path></svg>